
            <svg xmlns="http://www.w3.org/2000/svg" xmlns:cc="http://creativecommons.org/ns#" xmlns:rdf="http://www.w3.org/1999/02/22-rdf-syntax-ns#" version="1.1" width="338.62506103515625" height="182.5">
              <defs>
                <style type="text/css">svg {
            background-color: #fff; }
          
          .root text,
          .root tspan {
            font: 12px Arial; }
          
          .root path {
            fill-opacity: 0;
            stroke-width: 2px;
            stroke: #000; }
          
          .root circle {
            fill: #6b6659;
            stroke-width: 2px;
            stroke: #000; }
          
          .anchor text, .any-character text {
            fill: #fff; }
          
          .anchor rect, .any-character rect {
            fill: #6b6659; }
          
          .escape text, .charset-escape text, .literal text {
            fill: #000; }
          
          .escape rect, .charset-escape rect {
            fill: #bada55; }
          
          .literal rect {
            fill: #dae9e5; }
          
          .charset .charset-box {
            fill: #cbcbba; }
          
          .subexp .subexp-label tspan,
          .charset .charset-label tspan,
          .match-fragment .repeat-label tspan {
            font-size: 10px; }
          
          .repeat-label {
            cursor: help; }
          
          .subexp .subexp-label tspan,
          .charset .charset-label tspan {
            dominant-baseline: text-after-edge; }
          
          .subexp .subexp-box {
            stroke: #908c83;
            stroke-dasharray: 6,2;
            stroke-width: 2px;
            fill-opacity: 0; }
          
          .quote {
            fill: #908c83; }
          </style>
              </defs>
              <metadata>
                <rdf:rdf>
                  <cc:license rdf:about="http://creativecommons.org/licenses/by/3.0/">
                    <cc:permits rdf:resource="http://creativecommons.org/ns#Reproduction"></cc:permits>
                    <cc:permits rdf:resource="http://creativecommons.org/ns#Distribution"></cc:permits>
                    <cc:requires rdf:resource="http://creativecommons.org/ns#Notice"></cc:requires>
                    <cc:requires rdf:resource="http://creativecommons.org/ns#Attribution"></cc:requires>
                    <cc:permits rdf:resource="http://creativecommons.org/ns#DerivativeWorks"></cc:permits>
                  </cc:license>
                </rdf:rdf>
              </metadata>
            <desc>Created with Snap</desc><g class="root" transform="matrix(1,0,0,1,15,11)"><g class="regexp match" transform="matrix(1,0,0,1,10,0)"><path d="M44.65625,78H79.6563M114.31255,78H149.3125M183.96875,78H228.9688"></path><g class="match-fragment" transform="matrix(1,0,0,1,0,6.5)"><path d="M10,71.5q-10,0 -10,10v50.5q0,10 10,10h34.65625q10,0 10,-10v-50.5q0,-10 -10,-10M54.65625,86.5l5,-5m-5,5l-5,-5"></path><g class="charset" transform="matrix(1,0,0,1,10,0)"><rect rx="3" ry="3" class="charset-box" transform="matrix(1,0,0,1,0,11)" width="34.65625" height="121"></rect><text x="0" y="0" class="charset-label" transform="matrix(1,0,0,1,0,11)"><tspan>One of:</tspan></text><g transform="matrix(1,0,0,1,5,16)"><g class="literal" transform="matrix(1,0,0,1,0,0)"><g class="label"><rect width="24.65625" height="24" rx="3" ry="3"></rect><text x="0" y="0" transform="matrix(1,0,0,1,5,17)"><tspan class="quote">“</tspan><tspan>2</tspan><tspan class="quote">”</tspan></text></g></g><g class="literal" transform="matrix(1,0,0,1,0,29)"><g class="label"><rect width="24.65625" height="24" rx="3" ry="3"></rect><text x="0" y="0" transform="matrix(1,0,0,1,5,17)"><tspan class="quote">“</tspan><tspan>4</tspan><tspan class="quote">”</tspan></text></g></g><g class="literal" transform="matrix(1,0,0,1,0,58)"><g class="label"><rect width="24.65625" height="24" rx="3" ry="3"></rect><text x="0" y="0" transform="matrix(1,0,0,1,5,17)"><tspan class="quote">“</tspan><tspan>3</tspan><tspan class="quote">”</tspan></text></g></g><g class="literal" transform="matrix(1,0,0,1,0,87)"><g class="label"><rect width="24.65625" height="24" rx="3" ry="3"></rect><text x="0" y="0" transform="matrix(1,0,0,1,5,17)"><tspan class="quote">“</tspan><tspan>5</tspan><tspan class="quote">”</tspan></text></g></g></g></g><text x="0" y="0" class="repeat-label" transform="matrix(1,0,0,1,27.4375,153)"><tspan>5 times</tspan><title><text x="0" y="0">repeats 6 times in total</text></title></text></g><g class="match-fragment" transform="matrix(1,0,0,1,69.6563,35.5)"><path d="M10,42.5q-10,0 -10,10v21.5q0,10 10,10h34.65625q10,0 10,-10v-21.5q0,-10 -10,-10M54.65625,57.5l5,-5m-5,5l-5,-5"></path><g class="charset" transform="matrix(1,0,0,1,10,0)"><rect rx="3" ry="3" class="charset-box" transform="matrix(1,0,0,1,0,11)" width="34.65625" height="63"></rect><text x="0" y="0" class="charset-label" transform="matrix(1,0,0,1,0,11)"><tspan>One of:</tspan></text><g transform="matrix(1,0,0,1,5,16)"><g class="literal" transform="matrix(1,0,0,1,0,0)"><g class="label"><rect width="24.65625" height="24" rx="3" ry="3"></rect><text x="0" y="0" transform="matrix(1,0,0,1,5,17)"><tspan class="quote">“</tspan><tspan>1</tspan><tspan class="quote">”</tspan></text></g></g><g class="literal" transform="matrix(1,0,0,1,0,29)"><g class="label"><rect width="24.65625" height="24" rx="3" ry="3"></rect><text x="0" y="0" transform="matrix(1,0,0,1,5,17)"><tspan class="quote">“</tspan><tspan>9</tspan><tspan class="quote">”</tspan></text></g></g></g></g><text x="0" y="0" class="repeat-label" transform="matrix(1,0,0,1,27.4375,95)"><tspan>3 times</tspan><title><text x="0" y="0">repeats 4 times in total</text></title></text></g><g class="match-fragment" transform="matrix(1,0,0,1,139.3125,6.5)"><path d="M10,71.5q-10,0 -10,10v50.5q0,10 10,10h34.65625q10,0 10,-10v-50.5q0,-10 -10,-10M54.65625,86.5l5,-5m-5,5l-5,-5"></path><g class="charset" transform="matrix(1,0,0,1,10,0)"><rect rx="3" ry="3" class="charset-box" transform="matrix(1,0,0,1,0,11)" width="34.65625" height="121"></rect><text x="0" y="0" class="charset-label" transform="matrix(1,0,0,1,0,11)"><tspan>One of:</tspan></text><g transform="matrix(1,0,0,1,5,16)"><g class="literal" transform="matrix(1,0,0,1,0,0)"><g class="label"><rect width="24.65625" height="24" rx="3" ry="3"></rect><text x="0" y="0" transform="matrix(1,0,0,1,5,17)"><tspan class="quote">“</tspan><tspan>0</tspan><tspan class="quote">”</tspan></text></g></g><g class="literal" transform="matrix(1,0,0,1,0,29)"><g class="label"><rect width="24.65625" height="24" rx="3" ry="3"></rect><text x="0" y="0" transform="matrix(1,0,0,1,5,17)"><tspan class="quote">“</tspan><tspan>1</tspan><tspan class="quote">”</tspan></text></g></g><g class="literal" transform="matrix(1,0,0,1,0,58)"><g class="label"><rect width="24.65625" height="24" rx="3" ry="3"></rect><text x="0" y="0" transform="matrix(1,0,0,1,5,17)"><tspan class="quote">“</tspan><tspan>2</tspan><tspan class="quote">”</tspan></text></g></g><g class="literal" transform="matrix(1,0,0,1,0,87)"><g class="label"><rect width="24.65625" height="24" rx="3" ry="3"></rect><text x="0" y="0" transform="matrix(1,0,0,1,5,17)"><tspan class="quote">“</tspan><tspan>8</tspan><tspan class="quote">”</tspan></text></g></g></g></g><text x="0" y="0" class="repeat-label" transform="matrix(1,0,0,1,27.4375,153)"><tspan>3 times</tspan><title><text x="0" y="0">repeats 4 times in total</text></title></text></g><g class="match-fragment subexp" transform="matrix(1,0,0,1,208.9688,0)"><rect rx="3" ry="3" class="subexp-box" transform="matrix(1,0,0,1,0,11)" width="79.65625" height="147"></rect><text x="0" y="0" class="subexp-label" transform="matrix(1,0,0,1,0,11)"><tspan>group #1</tspan></text><g class="regexp match match-fragment" transform="matrix(1,0,0,1,10,21)"><path d="M10,57q-10,0 -10,10v36q0,10 10,10h34.65625q10,0 10,-10v-36q0,-10 -10,-10M54.65625,72l5,-5m-5,5l-5,-5"></path><g class="charset" transform="matrix(1,0,0,1,10,0)"><rect rx="3" ry="3" class="charset-box" transform="matrix(1,0,0,1,0,11)" width="34.65625" height="92"></rect><text x="0" y="0" class="charset-label" transform="matrix(1,0,0,1,0,11)"><tspan>One of:</tspan></text><g transform="matrix(1,0,0,1,5,16)"><g class="literal" transform="matrix(1,0,0,1,0,0)"><g class="label"><rect width="24.65625" height="24" rx="3" ry="3"></rect><text x="0" y="0" transform="matrix(1,0,0,1,5,17)"><tspan class="quote">“</tspan><tspan>1</tspan><tspan class="quote">”</tspan></text></g></g><g class="literal" transform="matrix(1,0,0,1,0,29)"><g class="label"><rect width="24.65625" height="24" rx="3" ry="3"></rect><text x="0" y="0" transform="matrix(1,0,0,1,5,17)"><tspan class="quote">“</tspan><tspan>4</tspan><tspan class="quote">”</tspan></text></g></g><g class="literal" transform="matrix(1,0,0,1,0,58)"><g class="label"><rect width="24.65625" height="24" rx="3" ry="3"></rect><text x="0" y="0" transform="matrix(1,0,0,1,5,17)"><tspan class="quote">“</tspan><tspan>6</tspan><tspan class="quote">”</tspan></text></g></g></g></g><text x="0" y="0" class="repeat-label" transform="matrix(1,0,0,1,27.4375,124)"><tspan>3 times</tspan><title><text x="0" y="0">repeats 4 times in total</text></title></text></g></g></g><path d="M20,78H0M273.62505,78H308.62506103515625"></path><circle cx="0" cy="78" r="5"></circle><circle cx="308.62506103515625" cy="78" r="5"></circle></g></svg>
          